<?xml version="1.0" encoding="UTF-8"?>
<svg viewBox="0 0 24 54" xmlns="http://www.w3.org/2000/svg">
 <g fill="#7f7f7f">
  <g fill-rule="evenodd">
   <path d="m12.012 41.435l-0.25 0.125-10 5-0.2509 0.8583 10.251 5.0167 0.25 0.125 0.2188-0.125 10-5v-0.875l-10-5-0.2188-0.125zm0 1.125l8.875 4.4375-8.875 4.4375-8.9062-4.4375 8.9062-4.4375z"/>
   <path d="m11.512 6.8724v0.0625c-3.1e-5 9.2e-5 -0.014709 0.54837-10 40.49l0.7188 0.0105 10-5 0.2812-0.125v-35.312l-1-0.125zm0 4.125v30.688l-8.7812 4.375c4.7032-18.813 7.2878-29.089 8.5-33.938 0.16071-0.64285 0.15921-0.63681 0.28125-1.125z"/>
   <path d="m12.48 6.8724l-0.9688 0.125v45l0.7188 0.4375 10-5 0.3438-0.1562-0.0938-0.4062-9.9688-39.875-0.0312-0.125zm0.0312 4.25l8.9062 35.625-8.9062 4.4375v-40.062z"/>
   <path d="m11.636 12.654l-2 2 0.125 0.7812 1.375 0.6875-2.0625 2 0.0938 0.7812 1.9375 1.125-3.4062 2.5625 0.0625 0.8438 3.2812 1.625-4.875 3.5312 0.0625 0.8438 4.8125 2.625-6.5938 4.5312 0.0312 0.8438 6.375 3.5-8.5625 3.5938 0.4062 0.9375 9.5-4 0.9375-0.4062-0.9062-0.5-6.5625-3.625 6.625-4.5312 0.6562-0.4688-0.7188-0.375-4.8438-2.625 4.9062-3.5312 0.6562-0.4688-0.7188-0.375-3.2812-1.6562 3.3438-2.5 0.5938-0.4688-0.625-0.375-2-1.1875 2.0938-2 0.5-0.5-0.625-0.3125-1.4062-0.6875 1.5312-1.5312-0.7188-0.6875z"/>
   <path d="m12.355 12.654l-0.7188 0.6875 1.5312 1.5312-1.4062 0.6875-0.625 0.3125 0.5312 0.5 2.0625 2-1.9688 1.1875-0.6562 0.375 0.5938 0.4688 3.3438 2.5-3.2812 1.6562-0.7188 0.375 0.6562 0.4688 4.9062 3.5312-4.8438 2.625-0.7188 0.375 0.6875 0.4688 6.5938 4.5625-6.5625 3.5938-0.9062 0.5 0.9375 0.4062 9.5312 4 0.375-0.9375-8.5625-3.5938 6.375-3.5 0.0312-0.8438-6.5938-4.5312 4.8125-2.625 0.0625-0.8438-4.875-3.5312 3.2812-1.625 0.0625-0.8438-3.375-2.5312 1.9375-1.1562 0.0938-0.7812-2.0938-2 1.375-0.6875 0.125-0.7812-2-2z"/>
  </g>
  <path d="m12 4.5123c-0.82251 0-1.5 0.67749-1.5 1.5 0 0.82254 0.67749 1.5 1.5 1.5 0.82254 0 1.5-0.67746 1.5-1.5 0-0.82251-0.67746-1.5-1.5-1.5zm0 1c0.28146 0 0.5 0.21854 0.5 0.5s-0.21854 0.5-0.5 0.5-0.5-0.21854-0.5-0.5 0.21854-0.5 0.5-0.5z"/>
  <path d="m15.234 9.0573c1.706-1.7618 1.6457-4.5415-0.088409-6.2756-1.7526-1.7526-4.6114-1.7526-6.364 0s-1.7526 4.6114 0 6.364l0.7071-0.7071c-1.37-1.37-1.37-3.5797 0-4.9498 1.37-1.37 3.5798-1.37 4.9498 0 1.3565 1.3565 1.3345 3.5716 0 4.9498l0.7955 0.6187z" stroke-width=".25"/>
 </g>
</svg>
